<svg xmlns="http://www.w3.org/2000/svg" viewBox="0 0 1011.2 598.0" role="img" aria-label="taskboard · swiss · components">
<title>taskboard · swiss · components</title>
<rect width="1011.2" height="598.0" fill="#101010"/>
<g font-family="ui-monospace,SFMono-Regular,'DejaVu Sans Mono','Cascadia Mono',Menlo,Consolas,'Liberation Mono',monospace" font-size="14.0" xml:space="preserve" style="white-space:pre;font-variant-ligatures:none">
<rect x="262.0" y="44.0" width="487.2" height="17.0" fill="#171717"/>
<text x="262.0" y="57.3" fill="#e2231a">┌────────────────────────────────────────────────────────┐</text>
<rect x="262.0" y="61.0" width="487.2" height="17.0" fill="#171717"/>
<text x="262.0" y="74.3" fill="#e2231a">│</text>
<text x="740.8" y="74.3" fill="#e2231a">│</text>
<rect x="262.0" y="78.0" width="445.2" height="17.0" fill="#171717"/>
<rect x="707.2" y="78.0" width="16.8" height="17.0" fill="#003054"/>
<rect x="724.0" y="78.0" width="25.2" height="17.0" fill="#171717"/>
<text x="262.0" y="91.3" fill="#e2231a">│</text>
<text x="287.2" y="91.3" fill="#f4f4f4">G A L</text>
<text x="740.8" y="91.3" fill="#e2231a">│</text>
<rect x="262.0" y="95.0" width="445.2" height="17.0" fill="#171717"/>
<rect x="707.2" y="95.0" width="16.8" height="17.0" fill="#003054"/>
<rect x="724.0" y="95.0" width="25.2" height="17.0" fill="#171717"/>
<text x="262.0" y="108.3" fill="#e2231a">│</text>
<text x="287.2" y="108.3" fill="#3d3d3d">─────</text>
<text x="740.8" y="108.3" fill="#e2231a">│</text>
<rect x="262.0" y="112.0" width="445.2" height="17.0" fill="#171717"/>
<rect x="707.2" y="112.0" width="16.8" height="17.0" fill="#003054"/>
<rect x="724.0" y="112.0" width="25.2" height="17.0" fill="#171717"/>
<text x="262.0" y="125.3" fill="#e2231a">│</text>
<text x="287.2" y="125.3" fill="#8a8a8a">Swiss</text>
<text x="740.8" y="125.3" fill="#e2231a">│</text>
<rect x="262.0" y="129.0" width="445.2" height="17.0" fill="#171717"/>
<rect x="707.2" y="129.0" width="16.8" height="17.0" fill="#003054"/>
<rect x="724.0" y="129.0" width="25.2" height="17.0" fill="#171717"/>
<text x="262.0" y="142.3" fill="#e2231a">│</text>
<text x="287.2" y="142.3" fill="#3d3d3d">──────────────────────────────────────────────────</text>
<text x="740.8" y="142.3" fill="#e2231a">│</text>
<rect x="262.0" y="146.0" width="445.2" height="17.0" fill="#171717"/>
<rect x="707.2" y="146.0" width="16.8" height="17.0" fill="#003054"/>
<rect x="724.0" y="146.0" width="25.2" height="17.0" fill="#171717"/>
<text x="262.0" y="159.3" fill="#e2231a">│</text>
<text x="287.2" y="159.3" fill="#3d3d3d">─</text>
<text x="740.8" y="159.3" fill="#e2231a">│</text>
<rect x="262.0" y="163.0" width="445.2" height="17.0" fill="#171717"/>
<rect x="707.2" y="163.0" width="16.8" height="17.0" fill="#003054"/>
<rect x="724.0" y="163.0" width="25.2" height="17.0" fill="#171717"/>
<text x="262.0" y="176.3" fill="#e2231a">│</text>
<text x="287.2" y="176.3" fill="#8a8a8a">checkable  </text>
<text x="379.6" y="176.3" fill="#3d3d3d">switch    checkbox</text>
<text x="547.6" y="176.3" fill="#3d3d3d">off·on</text>
<text x="740.8" y="176.3" fill="#e2231a">│</text>
<rect x="262.0" y="180.0" width="445.2" height="17.0" fill="#171717"/>
<rect x="707.2" y="180.0" width="16.8" height="17.0" fill="#003054"/>
<rect x="724.0" y="180.0" width="25.2" height="17.0" fill="#171717"/>
<text x="262.0" y="193.3" fill="#e2231a">│</text>
<text x="379.6" y="193.3" fill="#f4f4f4">│</text>
<text x="388.0" y="193.3" fill="#3d3d3d">──</text>
<text x="421.6" y="193.3" fill="#8a8a8a">━━</text>
<text x="438.4" y="193.3" fill="#f4f4f4">│  </text>
<text x="463.6" y="193.3" fill="#3d3d3d">│ │</text>
<text x="488.8" y="193.3" fill="#f4f4f4">  │▪│   </text>
<text x="556.0" y="193.3" fill="#3d3d3d">default</text>
<text x="740.8" y="193.3" fill="#e2231a">│</text>
<rect x="262.0" y="197.0" width="445.2" height="17.0" fill="#171717"/>
<rect x="707.2" y="197.0" width="16.8" height="17.0" fill="#003054"/>
<rect x="724.0" y="197.0" width="25.2" height="17.0" fill="#171717"/>
<text x="262.0" y="210.3" fill="#e2231a">│</text>
<text x="379.6" y="210.3" fill="#e2231a">┃</text>
<text x="388.0" y="210.3" fill="#3d3d3d">──</text>
<text x="421.6" y="210.3" fill="#8a8a8a">━━</text>
<text x="438.4" y="210.3" fill="#e2231a">┃</text>
<text x="463.6" y="210.3" fill="#3d3d3d">┃ ┃</text>
<text x="505.6" y="210.3" fill="#e2231a">┃▪┃</text>
<text x="556.0" y="210.3" fill="#3d3d3d">focused</text>
<text x="707.2" y="210.3" fill="#000000">▁▁</text>
<text x="740.8" y="210.3" fill="#e2231a">│</text>
<rect x="262.0" y="214.0" width="445.2" height="17.0" fill="#171717"/>
<rect x="707.2" y="214.0" width="16.8" height="17.0" fill="#000000"/>
<rect x="724.0" y="214.0" width="25.2" height="17.0" fill="#171717"/>
<text x="262.0" y="227.3" fill="#e2231a">│</text>
<text x="379.6" y="227.3" fill="#e2231a">█</text>
<text x="388.0" y="227.3" fill="#3d3d3d">──</text>
<text x="421.6" y="227.3" fill="#8a8a8a">━━</text>
<text x="438.4" y="227.3" fill="#e2231a">█</text>
<text x="463.6" y="227.3" fill="#3d3d3d">█ █</text>
<text x="505.6" y="227.3" fill="#e2231a">█▮█</text>
<text x="556.0" y="227.3" fill="#3d3d3d">active</text>
<text x="740.8" y="227.3" fill="#e2231a">│</text>
<rect x="262.0" y="231.0" width="445.2" height="17.0" fill="#171717"/>
<rect x="707.2" y="231.0" width="16.8" height="17.0" fill="#000000"/>
<rect x="724.0" y="231.0" width="25.2" height="17.0" fill="#171717"/>
<text x="262.0" y="244.3" fill="#e2231a">│</text>
<text x="379.6" y="244.3" fill="#3d3d3d">┆┈┈</text>
<text x="421.6" y="244.3" fill="#3d3d3d">┅┅┆</text>
<text x="463.6" y="244.3" fill="#3d3d3d">┆ ┆</text>
<text x="505.6" y="244.3" fill="#3d3d3d">┆·┆</text>
<text x="556.0" y="244.3" fill="#3d3d3d">disabled</text>
<text x="740.8" y="244.3" fill="#e2231a">│</text>
<rect x="262.0" y="248.0" width="445.2" height="17.0" fill="#171717"/>
<rect x="707.2" y="248.0" width="16.8" height="17.0" fill="#000000"/>
<rect x="724.0" y="248.0" width="25.2" height="17.0" fill="#171717"/>
<text x="262.0" y="261.3" fill="#e2231a">│</text>
<text x="287.2" y="261.3" fill="#8a8a8a">radio      </text>
<text x="379.6" y="261.3" fill="#3d3d3d">lo·mid·hi  set=mid cursor=hi</text>
<text x="740.8" y="261.3" fill="#e2231a">│</text>
<rect x="262.0" y="265.0" width="445.2" height="17.0" fill="#171717"/>
<rect x="707.2" y="265.0" width="16.8" height="17.0" fill="#000000"/>
<rect x="724.0" y="265.0" width="25.2" height="17.0" fill="#171717"/>
<text x="262.0" y="278.3" fill="#e2231a">│</text>
<text x="379.6" y="278.3" fill="#3d3d3d">╵ ╵</text>
<text x="413.2" y="278.3" fill="#8a8a8a">lo</text>
<text x="430.0" y="278.3" fill="#f4f4f4">  ╵•╵ mid  </text>
<text x="522.4" y="278.3" fill="#3d3d3d">╵ ╵</text>
<text x="556.0" y="278.3" fill="#8a8a8a">hi</text>
<text x="598.0" y="278.3" fill="#3d3d3d">default</text>
<text x="740.8" y="278.3" fill="#e2231a">│</text>
<rect x="262.0" y="282.0" width="445.2" height="17.0" fill="#171717"/>
<rect x="707.2" y="282.0" width="16.8" height="17.0" fill="#000000"/>
<rect x="724.0" y="282.0" width="25.2" height="17.0" fill="#171717"/>
<text x="262.0" y="295.3" fill="#e2231a">│</text>
<text x="379.6" y="295.3" fill="#3d3d3d">╵ ╵</text>
<text x="413.2" y="295.3" fill="#8a8a8a">lo</text>
<text x="430.0" y="295.3" fill="#f4f4f4">  ╵•╵ mid  </text>
<text x="522.4" y="295.3" fill="#3d3d3d">╹ ╹</text>
<text x="556.0" y="295.3" fill="#8a8a8a">hi</text>
<text x="598.0" y="295.3" fill="#3d3d3d">focused</text>
<text x="740.8" y="295.3" fill="#e2231a">│</text>
<rect x="262.0" y="299.0" width="445.2" height="17.0" fill="#171717"/>
<rect x="707.2" y="299.0" width="16.8" height="17.0" fill="#000000"/>
<rect x="724.0" y="299.0" width="25.2" height="17.0" fill="#171717"/>
<text x="262.0" y="312.3" fill="#e2231a">│</text>
<text x="379.6" y="312.3" fill="#3d3d3d">╵ ╵</text>
<text x="413.2" y="312.3" fill="#8a8a8a">lo</text>
<text x="430.0" y="312.3" fill="#f4f4f4">  ╵•╵ mid  </text>
<text x="522.4" y="312.3" fill="#3d3d3d">▀ ▀</text>
<text x="556.0" y="312.3" fill="#8a8a8a">hi</text>
<text x="598.0" y="312.3" fill="#3d3d3d">active</text>
<text x="740.8" y="312.3" fill="#e2231a">│</text>
<rect x="262.0" y="316.0" width="445.2" height="17.0" fill="#171717"/>
<rect x="707.2" y="316.0" width="16.8" height="17.0" fill="#000000"/>
<rect x="724.0" y="316.0" width="25.2" height="17.0" fill="#171717"/>
<text x="262.0" y="329.3" fill="#e2231a">│</text>
<text x="379.6" y="329.3" fill="#3d3d3d">╎ ╎</text>
<text x="413.2" y="329.3" fill="#3d3d3d">lo</text>
<text x="446.8" y="329.3" fill="#3d3d3d">╎·╎</text>
<text x="480.4" y="329.3" fill="#3d3d3d">mid</text>
<text x="522.4" y="329.3" fill="#3d3d3d">╎ ╎</text>
<text x="556.0" y="329.3" fill="#3d3d3d">hi</text>
<text x="598.0" y="329.3" fill="#3d3d3d">disabled</text>
<text x="740.8" y="329.3" fill="#e2231a">│</text>
<rect x="262.0" y="333.0" width="445.2" height="17.0" fill="#171717"/>
<rect x="707.2" y="333.0" width="16.8" height="17.0" fill="#000000"/>
<rect x="724.0" y="333.0" width="25.2" height="17.0" fill="#171717"/>
<text x="262.0" y="346.3" fill="#e2231a">│</text>
<text x="287.2" y="346.3" fill="#8a8a8a">button     </text>
<text x="379.6" y="346.3" fill="#3d3d3d">ok·Refresh  label INSIDE</text>
<text x="740.8" y="346.3" fill="#e2231a">│</text>
<rect x="262.0" y="350.0" width="445.2" height="17.0" fill="#171717"/>
<rect x="707.2" y="350.0" width="16.8" height="17.0" fill="#000000"/>
<rect x="724.0" y="350.0" width="25.2" height="17.0" fill="#171717"/>
<text x="262.0" y="363.3" fill="#e2231a">│</text>
<text x="379.6" y="363.3" fill="#f4f4f4">· ok    · Refresh     </text>
<text x="564.4" y="363.3" fill="#3d3d3d">default</text>
<text x="740.8" y="363.3" fill="#e2231a">│</text>
<rect x="262.0" y="367.0" width="445.2" height="17.0" fill="#171717"/>
<rect x="707.2" y="367.0" width="16.8" height="17.0" fill="#000000"/>
<rect x="724.0" y="367.0" width="25.2" height="17.0" fill="#171717"/>
<text x="262.0" y="380.3" fill="#e2231a">│</text>
<text x="379.6" y="380.3" fill="#e2231a">• </text>
<text x="396.4" y="380.3" fill="#f4f4f4">ok</text>
<text x="446.8" y="380.3" fill="#e2231a">• </text>
<text x="463.6" y="380.3" fill="#f4f4f4">Refresh</text>
<text x="564.4" y="380.3" fill="#3d3d3d">focused</text>
<text x="740.8" y="380.3" fill="#e2231a">│</text>
<rect x="262.0" y="384.0" width="445.2" height="17.0" fill="#171717"/>
<rect x="707.2" y="384.0" width="16.8" height="17.0" fill="#000000"/>
<rect x="724.0" y="384.0" width="25.2" height="17.0" fill="#171717"/>
<text x="262.0" y="397.3" fill="#e2231a">│</text>
<text x="379.6" y="397.3" fill="#e2231a">● </text>
<text x="396.4" y="397.3" fill="#f4f4f4">ok</text>
<text x="446.8" y="397.3" fill="#e2231a">● </text>
<text x="463.6" y="397.3" fill="#f4f4f4">Refresh</text>
<text x="564.4" y="397.3" fill="#3d3d3d">active</text>
<text x="740.8" y="397.3" fill="#e2231a">│</text>
<rect x="262.0" y="401.0" width="445.2" height="17.0" fill="#171717"/>
<rect x="707.2" y="401.0" width="16.8" height="17.0" fill="#000000"/>
<rect x="724.0" y="401.0" width="25.2" height="17.0" fill="#171717"/>
<text x="262.0" y="414.3" fill="#e2231a">│</text>
<text x="379.6" y="414.3" fill="#3d3d3d">  ok  </text>
<text x="446.8" y="414.3" fill="#3d3d3d">  Refresh  </text>
<text x="564.4" y="414.3" fill="#3d3d3d">disabled</text>
<text x="740.8" y="414.3" fill="#e2231a">│</text>
<rect x="262.0" y="418.0" width="445.2" height="17.0" fill="#171717"/>
<rect x="707.2" y="418.0" width="16.8" height="17.0" fill="#000000"/>
<rect x="724.0" y="418.0" width="25.2" height="17.0" fill="#171717"/>
<text x="262.0" y="431.3" fill="#e2231a">│</text>
<text x="287.2" y="431.3" fill="#8a8a8a">textfield  </text>
<text x="379.6" y="431.3" fill="#3d3d3d">task·caret 2</text>
<text x="740.8" y="431.3" fill="#e2231a">│</text>
<rect x="262.0" y="435.0" width="445.2" height="17.0" fill="#171717"/>
<rect x="707.2" y="435.0" width="16.8" height="17.0" fill="#000000"/>
<rect x="724.0" y="435.0" width="25.2" height="17.0" fill="#171717"/>
<text x="262.0" y="448.3" fill="#e2231a">│</text>
<text x="379.6" y="448.3" fill="#3d3d3d">│</text>
<text x="388.0" y="448.3" fill="#f4f4f4">task</text>
<text x="421.6" y="448.3" fill="#3d3d3d">      │</text>
<text x="505.6" y="448.3" fill="#3d3d3d">default</text>
<text x="740.8" y="448.3" fill="#e2231a">│</text>
<rect x="262.0" y="452.0" width="445.2" height="17.0" fill="#171717"/>
<rect x="707.2" y="452.0" width="16.8" height="17.0" fill="#000000"/>
<rect x="724.0" y="452.0" width="25.2" height="17.0" fill="#171717"/>
<text x="262.0" y="465.3" fill="#e2231a">│</text>
<text x="379.6" y="465.3" fill="#3d3d3d">┃</text>
<text x="388.0" y="465.3" fill="#f4f4f4">task</text>
<text x="421.6" y="465.3" fill="#3d3d3d">      ┃</text>
<text x="505.6" y="465.3" fill="#3d3d3d">focused</text>
<text x="740.8" y="465.3" fill="#e2231a">│</text>
<rect x="262.0" y="469.0" width="445.2" height="17.0" fill="#171717"/>
<rect x="707.2" y="469.0" width="16.8" height="17.0" fill="#000000"/>
<rect x="724.0" y="469.0" width="25.2" height="17.0" fill="#171717"/>
<text x="262.0" y="482.3" fill="#e2231a">│</text>
<text x="379.6" y="482.3" fill="#3d3d3d">┃</text>
<text x="388.0" y="482.3" fill="#f4f4f4">ta</text>
<text x="404.8" y="482.3" fill="#e2231a">▏</text>
<text x="413.2" y="482.3" fill="#f4f4f4">sk</text>
<text x="430.0" y="482.3" fill="#3d3d3d">·····┃</text>
<text x="505.6" y="482.3" fill="#3d3d3d">edited</text>
<text x="740.8" y="482.3" fill="#e2231a">│</text>
<rect x="262.0" y="486.0" width="445.2" height="17.0" fill="#171717"/>
<rect x="707.2" y="486.0" width="16.8" height="17.0" fill="#000000"/>
<rect x="724.0" y="486.0" width="25.2" height="17.0" fill="#171717"/>
<text x="262.0" y="499.3" fill="#e2231a">│</text>
<text x="379.6" y="499.3" fill="#3d3d3d">█</text>
<text x="388.0" y="499.3" fill="#f4f4f4">task</text>
<text x="421.6" y="499.3" fill="#3d3d3d">      █</text>
<text x="505.6" y="499.3" fill="#3d3d3d">active</text>
<text x="740.8" y="499.3" fill="#e2231a">│</text>
<rect x="262.0" y="503.0" width="487.2" height="17.0" fill="#171717"/>
<text x="262.0" y="516.3" fill="#e2231a">│</text>
<text x="740.8" y="516.3" fill="#e2231a">│</text>
<rect x="262.0" y="520.0" width="487.2" height="17.0" fill="#171717"/>
<text x="262.0" y="533.3" fill="#e2231a">└────────────────────────────────────────────────────────┘</text>
<rect x="10.0" y="571.0" width="991.2" height="17.0" fill="#171717"/>
<text x="10.0" y="584.3" fill="#e2231a" font-weight="bold"> esc/q/g </text>
<text x="85.6" y="584.3" fill="#e0e0e0">Close </text>
<text x="136.0" y="584.3" fill="#e2231a" font-weight="bold"> t </text>
<text x="161.2" y="584.3" fill="#e0e0e0">Language </text>
</g>
</svg>
