<svg xmlns="http://www.w3.org/2000/svg" viewBox="0 0 860.0 564.0" role="img" aria-label="taskboard - ledger - K6 match">
<title>taskboard - ledger - K6 match</title>
<rect width="860.0" height="564.0" fill="#e9e1cf"/>
<g font-family="ui-monospace,SFMono-Regular,'DejaVu Sans Mono','Cascadia Mono',Menlo,Consolas,'Liberation Mono',monospace" font-size="14.0" xml:space="preserve" style="white-space:pre;font-variant-ligatures:none">
<text x="26.8" y="40.3" fill="#aba597">SIGNALS ······························································ </text>
<text x="623.2" y="40.3" fill="#c0b9a9">what the widget watches</text>
<text x="26.8" y="57.3" fill="#ccc4b3">──────────────────────────────────────────────────────────────────────────────────────────────</text>
<rect x="10.0" y="61.0" width="840.0" height="17.0" fill="#f2ecdd"/>
<text x="10.0" y="74.3" fill="#c4b99f">▔▔▔▔▔▔▔▔▔▔▔▔▔▔▔▔▔▔▔▔▔▔▔▔▔▔▔▔▔▔▔▔▔▔▔▔▔▔▔▔▔▔▔▔▔▔▔▔▔▔▔▔▔▔▔▔▔▔▔▔▔▔▔▔▔▔▔▔▔▔▔▔▔▔▔▔▔▔▔▔▔▔▔▔▔▔▔▔▔▔▔▔▔▔▔▔▔▔▔▔</text>
<rect x="10.0" y="78.0" width="840.0" height="17.0" fill="#f2ecdd"/>
<rect x="10.0" y="95.0" width="75.6" height="17.0" fill="#f2ecdd"/>
<rect x="85.6" y="95.0" width="8.4" height="17.0" fill="#e0e0e0"/>
<rect x="94.0" y="95.0" width="747.6" height="17.0" fill="#f2ecdd"/>
<text x="26.8" y="108.3" fill="#2b3a67">🔎</text>
<text x="43.6" y="108.3" fill="#1c1a15">refre</text>
<rect x="10.0" y="112.0" width="840.0" height="17.0" fill="#f2ecdd"/>
<rect x="10.0" y="129.0" width="840.0" height="17.0" fill="#f2ecdd"/>
<text x="10.0" y="142.3" fill="#c4b99f">▁▁▁▁▁▁▁▁▁▁▁▁▁▁▁▁▁▁▁▁▁▁▁▁▁▁▁▁▁▁▁▁▁▁▁▁▁▁▁▁▁▁▁▁▁▁▁▁▁▁▁▁▁▁▁▁▁▁▁▁▁▁▁▁▁▁▁▁▁▁▁▁▁▁▁▁▁▁▁▁▁▁▁▁▁▁▁▁▁▁▁▁▁▁▁▁▁▁▁▁</text>
<rect x="10.0" y="146.0" width="840.0" height="17.0" fill="#f2ecdd"/>
<rect x="10.0" y="163.0" width="840.0" height="17.0" fill="#ded4bc"/>
<text x="26.8" y="176.3" fill="#1c1a15" text-decoration="underline">Refre</text>
<text x="68.8" y="176.3" fill="#1c1a15">sh now                                                                                       </text>
<rect x="10.0" y="180.0" width="840.0" height="17.0" fill="#ded4bc"/>
<text x="26.8" y="193.3" fill="#c4b99f">Recompute every signal immediately</text>
<rect x="10.0" y="197.0" width="840.0" height="17.0" fill="#f2ecdd"/>
<text x="10.0" y="210.3" fill="#000000">▁▁▁▁▁▁▁▁▁▁▁▁▁▁▁▁▁▁▁▁▁▁▁▁▁▁▁▁▁▁▁▁▁▁▁▁▁▁▁▁▁▁▁▁▁▁▁▁▁▁▁▁▁▁▁▁▁▁▁▁▁▁▁▁▁▁▁▁▁▁▁▁▁▁▁▁▁▁▁▁▁▁▁▁▁▁▁▁▁▁▁▁▁▁▁▁▁▁▁▁</text>
<text x="35.2" y="244.3" fill="#ddd5c0">esc/q back · space toggle · [ threshold - · ] threshold + · r refresh</text>
<rect x="10.0" y="537.0" width="840.0" height="17.0" fill="#ebe4d3"/>
<text x="10.0" y="550.3" fill="#b0aeaf" font-weight="bold"> esc/q </text>
<text x="68.8" y="550.3" fill="#e6e0d4">Back </text>
<text x="110.8" y="550.3" fill="#b0aeaf" font-weight="bold"> space </text>
<text x="169.6" y="550.3" fill="#e6e0d4">Toggle </text>
<text x="228.4" y="550.3" fill="#b0aeaf" font-weight="bold"> [ </text>
<text x="253.6" y="550.3" fill="#e6e0d4">Threshold - </text>
<text x="354.4" y="550.3" fill="#b0aeaf" font-weight="bold"> ] </text>
<text x="379.6" y="550.3" fill="#e6e0d4">Threshold + </text>
<text x="480.4" y="550.3" fill="#b0aeaf" font-weight="bold"> r </text>
<text x="505.6" y="550.3" fill="#e6e0d4">Refresh </text>
<text x="572.8" y="550.3" fill="#b0aeaf" font-weight="bold"> ? </text>
<text x="598.0" y="550.3" fill="#e6e0d4">Keys </text>
<text x="640.0" y="550.3" fill="#b0aeaf" font-weight="bold"> t </text>
<text x="665.2" y="550.3" fill="#e6e0d4">Language </text>
<text x="749.2" y="550.3" fill="#eae3d3">▏</text>
<text x="757.6" y="550.3" fill="#b0aeaf" font-weight="bold">^p</text>
<text x="774.4" y="550.3" fill="#e6e0d4"> palette</text>
</g>
</svg>
