<svg xmlns="http://www.w3.org/2000/svg" viewBox="0 0 860.0 564.0" role="img" aria-label="taskboard · blueprint · S5 live monitor / log">
<title>taskboard · blueprint · S5 live monitor / log</title>
<rect width="860.0" height="564.0" fill="#121212"/>
<g font-family="ui-monospace,SFMono-Regular,'DejaVu Sans Mono','Cascadia Mono',Menlo,Consolas,'Liberation Mono',monospace" font-size="14.0" xml:space="preserve" style="white-space:pre;font-variant-ligatures:none">
<text x="10.0" y="23.3" fill="#eef4f8">MONITOR</text>
<text x="85.6" y="23.3" fill="#7fa8c4">·── 8 EVENTS  ·  HELD</text>
<text x="26.8" y="57.3" fill="#7fa8c4">events/s    </text>
<text x="127.6" y="57.3" fill="#24486b">├</text>
<text x="136.0" y="57.3" fill="#7fa8c4">───────</text>
<text x="194.8" y="57.3" fill="#24486b">······</text>
<text x="253.6" y="57.3" fill="#7fa8c4">5</text>
<text x="26.8" y="91.3" fill="#7fa8c4">rate    ╌─╌─╌─</text>
<text x="144.4" y="91.3" fill="#eef4f8">━</text>
<text x="152.8" y="91.3" fill="#7fa8c4">─╌╌───╌──</text>
<text x="245.2" y="91.3" fill="#24486b">ceiling 10</text>
<text x="26.8" y="142.3" fill="#24486b">09:41:02</text>
<text x="102.4" y="142.3" fill="#24486b">··</text>
<text x="127.6" y="142.3" fill="#7fa8c4">board loaded  16 tasks  4 projects</text>
<text x="26.8" y="159.3" fill="#24486b">09:41:07</text>
<text x="102.4" y="159.3" fill="#24486b">··</text>
<text x="127.6" y="159.3" fill="#7fa8c4">sync started  remote=origin</text>
<text x="26.8" y="176.3" fill="#24486b">09:41:09</text>
<text x="102.4" y="176.3" fill="#7fa8c4">╌╌</text>
<text x="127.6" y="176.3" fill="#eef4f8">3 tasks overdue in BACKLOG</text>
<text x="26.8" y="193.3" fill="#24486b">09:41:12</text>
<text x="102.4" y="193.3" fill="#24486b">··</text>
<text x="127.6" y="193.3" fill="#7fa8c4">sync ok  216 ms  0 conflicts</text>
<text x="26.8" y="210.3" fill="#24486b">09:41:18</text>
<text x="102.4" y="210.3" fill="#eef4f8">━━</text>
<text x="127.6" y="210.3" fill="#eef4f8">rate limit hit  retry in 30 s</text>
<text x="26.8" y="227.3" fill="#24486b">09:41:20</text>
<text x="102.4" y="227.3" fill="#24486b">··</text>
<text x="127.6" y="227.3" fill="#7fa8c4">retry scheduled  attempt 2 of 5</text>
<text x="26.8" y="244.3" fill="#24486b">09:41:33</text>
<text x="102.4" y="244.3" fill="#24486b">··</text>
<text x="127.6" y="244.3" fill="#7fa8c4">sync ok  198 ms  0 conflicts</text>
<text x="26.8" y="261.3" fill="#24486b">09:41:41</text>
<text x="102.4" y="261.3" fill="#24486b">··</text>
<text x="127.6" y="261.3" fill="#7fa8c4">signal engine idle</text>
<text x="94.0" y="278.3" fill="#7fa8c4">held -- space resumes</text>
<text x="161.2" y="516.3" fill="#eef4f8">┌</text>
<text x="194.8" y="516.3" fill="#eef4f8">┐</text>
<text x="287.2" y="516.3" fill="#7fa8c4">─────────</text>
<text x="18.4" y="533.3" fill="#7fa8c4">board</text>
<text x="77.2" y="533.3" fill="#7fa8c4">form</text>
<text x="127.6" y="533.3" fill="#7fa8c4">cfg</text>
<text x="169.6" y="533.3" fill="#eef4f8">LOG</text>
<text x="287.2" y="533.3" fill="#7fa8c4">├ CLEAR ┤</text>
<text x="161.2" y="550.3" fill="#eef4f8">└</text>
<text x="194.8" y="550.3" fill="#eef4f8">┘</text>
<text x="287.2" y="550.3" fill="#7fa8c4">─────────</text>
</g>
</svg>
