<svg xmlns="http://www.w3.org/2000/svg" viewBox="0 0 860.0 564.0" role="img" aria-label="taskboard · darkside · S3 settings">
<title>taskboard · darkside · S3 settings</title>
<rect width="860.0" height="564.0" fill="#121212"/>
<g font-family="ui-monospace,SFMono-Regular,'DejaVu Sans Mono','Cascadia Mono',Menlo,Consolas,'Liberation Mono',monospace" font-size="14.0" xml:space="preserve" style="white-space:pre;font-variant-ligatures:none">
<text x="10.0" y="23.3" fill="#262626">( )</text>
<text x="35.2" y="23.3" fill="#737373">board</text>
<text x="94.0" y="23.3" fill="#262626">( )</text>
<text x="119.2" y="23.3" fill="#737373">form</text>
<text x="169.6" y="23.3" fill="#1783ff">(O)</text>
<text x="194.8" y="23.3" fill="#f5f5f5">cfg</text>
<text x="236.8" y="23.3" fill="#262626">( )</text>
<text x="262.0" y="23.3" fill="#737373">log</text>
<text x="10.0" y="40.3" fill="#f5f5f5">settings</text>
<text x="94.0" y="40.3" fill="#262626">5 switches  ·  2 selects  ·  1 slider</text>
<text x="26.8" y="74.3" fill="#737373">notify on overdue</text>
<text x="245.2" y="74.3" fill="#737373">▬▬</text>
<text x="262.0" y="74.3" fill="#1783ff">O</text>
<text x="26.8" y="91.3" fill="#737373">daily digest</text>
<text x="245.2" y="91.3" fill="#737373">▬▬</text>
<text x="262.0" y="91.3" fill="#1783ff">O</text>
<text x="26.8" y="108.3" fill="#737373">sound</text>
<text x="245.2" y="108.3" fill="#1783ff">O</text>
<text x="253.6" y="108.3" fill="#262626">──</text>
<text x="26.8" y="125.3" fill="#262626">sync to remote</text>
<text x="245.2" y="125.3" fill="#262626">x╌╌</text>
<text x="295.6" y="125.3" fill="#262626">(no remote configured)</text>
<text x="26.8" y="142.3" fill="#737373">compact rows</text>
<text x="245.2" y="142.3" fill="#737373">▬▬</text>
<text x="262.0" y="142.3" fill="#1783ff">O</text>
<text x="26.8" y="176.3" fill="#737373">start of week</text>
<text x="245.2" y="176.3" fill="#262626">▬</text>
<text x="253.6" y="176.3" fill="#f5f5f5">mon    </text>
<text x="312.4" y="176.3" fill="#262626">▿▬</text>
<text x="26.8" y="193.3" fill="#737373">theme</text>
<text x="245.2" y="193.3" fill="#262626">▬</text>
<text x="253.6" y="193.3" fill="#f5f5f5">dark   </text>
<text x="312.4" y="193.3" fill="#262626">▿▬</text>
<text x="278.8" y="210.3" fill="#737373">auto   </text>
<text x="278.8" y="227.3" fill="#737373">light  </text>
<text x="262.0" y="244.3" fill="#1783ff">▊</text>
<text x="278.8" y="244.3" fill="#f5f5f5">dark   </text>
<text x="26.8" y="278.3" fill="#737373">row density</text>
<text x="245.2" y="278.3" fill="#737373">▬▬▬▬▬▬▬▬▬</text>
<text x="320.8" y="278.3" fill="#1783ff">O</text>
<text x="329.2" y="278.3" fill="#262626">────</text>
<text x="371.2" y="278.3" fill="#737373">70</text>
<text x="26.8" y="329.3" fill="#262626">danger zone</text>
<text x="589.6" y="329.3" fill="#262626">◦</text>
<text x="606.4" y="329.3" fill="#f5f5f5">delete every completed task</text>
<text x="26.8" y="346.3" fill="#1783ff">▬ </text>
<text x="43.6" y="346.3" fill="#f5f5f5">ØDelete allØ</text>
<text x="144.4" y="346.3" fill="#1783ff"> ▬</text>
<text x="186.4" y="346.3" fill="#262626">7 tasks, not recoverable</text>
</g>
</svg>
