<svg xmlns="http://www.w3.org/2000/svg" viewBox="0 0 860.0 564.0" role="img" aria-label="taskboard · swiss · S5 live monitor / log">
<title>taskboard · swiss · S5 live monitor / log</title>
<rect width="860.0" height="564.0" fill="#101010"/>
<g font-family="ui-monospace,SFMono-Regular,'DejaVu Sans Mono','Cascadia Mono',Menlo,Consolas,'Liberation Mono',monospace" font-size="14.0" xml:space="preserve" style="white-space:pre;font-variant-ligatures:none">
<text x="10.0" y="23.3" fill="#9b9b9b">board</text>
<text x="77.2" y="23.3" fill="#9b9b9b">form</text>
<text x="136.0" y="23.3" fill="#9b9b9b">cfg</text>
<text x="186.4" y="23.3" fill="#f4f4f4">L O G</text>
<text x="10.0" y="40.3" fill="#f4f4f4">M O N I T O R</text>
<text x="144.4" y="40.3" fill="#9b9b9b">8 events  ·  held</text>
<text x="10.0" y="57.3" fill="#3d3d3d">───────────────────────────────────────────────────────────────────────────────────────────────────</text>
<text x="26.8" y="91.3" fill="#9b9b9b">EVENTS/S</text>
<text x="127.6" y="91.3" fill="#9b9b9b">▀▀▀▀▀▀▀</text>
<text x="186.4" y="91.3" fill="#3d3d3d">───────</text>
<text x="262.0" y="91.3" fill="#9b9b9b">5</text>
<text x="26.8" y="125.3" fill="#9b9b9b">rate    </text>
<text x="94.0" y="125.3" fill="#3d3d3d">─</text>
<text x="102.4" y="125.3" fill="#eb574f">━</text>
<text x="110.8" y="125.3" fill="#3d3d3d">─</text>
<text x="119.2" y="125.3" fill="#eb574f">━</text>
<text x="127.6" y="125.3" fill="#3d3d3d">─</text>
<text x="136.0" y="125.3" fill="#eb574f">━━━</text>
<text x="161.2" y="125.3" fill="#3d3d3d">──</text>
<text x="178.0" y="125.3" fill="#eb574f">━━━</text>
<text x="203.2" y="125.3" fill="#3d3d3d">─</text>
<text x="211.6" y="125.3" fill="#eb574f">━━</text>
<text x="245.2" y="125.3" fill="#3d3d3d">ceiling 10</text>
<text x="26.8" y="159.3" fill="#3d3d3d">───────────────────────────────────────────────────────────────────────────────────────────────</text>
<text x="26.8" y="176.3" fill="#3d3d3d">09:41:02</text>
<text x="102.4" y="176.3" fill="#9b9b9b">·</text>
<text x="119.2" y="176.3" fill="#9b9b9b">board loaded  16 tasks  4 projects</text>
<text x="26.8" y="193.3" fill="#3d3d3d">09:41:07</text>
<text x="102.4" y="193.3" fill="#9b9b9b">·</text>
<text x="119.2" y="193.3" fill="#9b9b9b">sync started  remote=origin</text>
<text x="26.8" y="210.3" fill="#3d3d3d">09:41:09</text>
<text x="102.4" y="210.3" fill="#f4f4f4">─</text>
<text x="119.2" y="210.3" fill="#f4f4f4">3 tasks overdue in BACKLOG</text>
<text x="26.8" y="227.3" fill="#3d3d3d">09:41:12</text>
<text x="102.4" y="227.3" fill="#9b9b9b">·</text>
<text x="119.2" y="227.3" fill="#9b9b9b">sync ok  216 ms  0 conflicts</text>
<text x="26.8" y="244.3" fill="#3d3d3d">09:41:18</text>
<text x="102.4" y="244.3" fill="#f4f4f4">━</text>
<text x="119.2" y="244.3" fill="#f4f4f4">rate limit hit  retry in 30 s</text>
<text x="26.8" y="261.3" fill="#3d3d3d">09:41:20</text>
<text x="102.4" y="261.3" fill="#9b9b9b">·</text>
<text x="119.2" y="261.3" fill="#9b9b9b">retry scheduled  attempt 2 of 5</text>
<text x="26.8" y="278.3" fill="#3d3d3d">09:41:33</text>
<text x="102.4" y="278.3" fill="#9b9b9b">·</text>
<text x="119.2" y="278.3" fill="#9b9b9b">sync ok  198 ms  0 conflicts</text>
<text x="26.8" y="295.3" fill="#3d3d3d">09:41:41</text>
<text x="102.4" y="295.3" fill="#9b9b9b">·</text>
<text x="119.2" y="295.3" fill="#9b9b9b">signal engine idle</text>
<text x="94.0" y="312.3" fill="#9b9b9b">held -- space resumes</text>
</g>
</svg>
