<svg class="rich-terminal" viewBox="0 0 1458 782.0" xmlns="http://www.w3.org/2000/svg">
    <!-- Generated with Rich https://www.textualize.io -->
    <style>

    @font-face {
        font-family: "Fira Code";
        src: local("FiraCode-Regular"),
                url("https://cdnjs.cloudflare.com/ajax/libs/firacode/6.2.0/woff2/FiraCode-Regular.woff2") format("woff2"),
                url("https://cdnjs.cloudflare.com/ajax/libs/firacode/6.2.0/woff/FiraCode-Regular.woff") format("woff");
        font-style: normal;
        font-weight: 400;
    }
    @font-face {
        font-family: "Fira Code";
        src: local("FiraCode-Bold"),
                url("https://cdnjs.cloudflare.com/ajax/libs/firacode/6.2.0/woff2/FiraCode-Bold.woff2") format("woff2"),
                url("https://cdnjs.cloudflare.com/ajax/libs/firacode/6.2.0/woff/FiraCode-Bold.woff") format("woff");
        font-style: bold;
        font-weight: 700;
    }

    .terminal-2016407568-matrix {
        font-family: Fira Code, monospace;
        font-size: 20px;
        line-height: 24.4px;
        font-variant-east-asian: full-width;
    }

    .terminal-2016407568-title {
        font-size: 18px;
        font-weight: bold;
        font-family: arial;
    }

    .terminal-2016407568-r1 { fill: #c5c8c6 }
.terminal-2016407568-r2 { fill: #334154 }
.terminal-2016407568-r3 { fill: #e6edf7;font-weight: bold }
.terminal-2016407568-r4 { fill: #e6edf3;text-decoration: underline; }
.terminal-2016407568-r5 { fill: #6b4a3f }
.terminal-2016407568-r6 { fill: #a78bfa }
.terminal-2016407568-r7 { fill: #e6edf3 }
.terminal-2016407568-r8 { fill: #2dd4bf }
.terminal-2016407568-r9 { fill: #5b6675 }
.terminal-2016407568-r10 { fill: #8b98a5 }
.terminal-2016407568-r11 { fill: #3f9c6d }
.terminal-2016407568-r12 { fill: #9ca2a8 }
.terminal-2016407568-r13 { fill: #9ca2ab;font-weight: bold }
    </style>

    <defs>
    <clipPath id="terminal-2016407568-clip-terminal">
      <rect x="0" y="0" width="1438.6" height="731.0" />
    </clipPath>
    <clipPath id="terminal-2016407568-line-0">
    <rect x="0" y="1.5" width="1439.6" height="24.65"/>
            </clipPath>
<clipPath id="terminal-2016407568-line-1">
    <rect x="0" y="25.9" width="1439.6" height="24.65"/>
            </clipPath>
<clipPath id="terminal-2016407568-line-2">
    <rect x="0" y="50.3" width="1439.6" height="24.65"/>
            </clipPath>
<clipPath id="terminal-2016407568-line-3">
    <rect x="0" y="74.7" width="1439.6" height="24.65"/>
            </clipPath>
<clipPath id="terminal-2016407568-line-4">
    <rect x="0" y="99.1" width="1439.6" height="24.65"/>
            </clipPath>
<clipPath id="terminal-2016407568-line-5">
    <rect x="0" y="123.5" width="1439.6" height="24.65"/>
            </clipPath>
<clipPath id="terminal-2016407568-line-6">
    <rect x="0" y="147.9" width="1439.6" height="24.65"/>
            </clipPath>
<clipPath id="terminal-2016407568-line-7">
    <rect x="0" y="172.3" width="1439.6" height="24.65"/>
            </clipPath>
<clipPath id="terminal-2016407568-line-8">
    <rect x="0" y="196.7" width="1439.6" height="24.65"/>
            </clipPath>
<clipPath id="terminal-2016407568-line-9">
    <rect x="0" y="221.1" width="1439.6" height="24.65"/>
            </clipPath>
<clipPath id="terminal-2016407568-line-10">
    <rect x="0" y="245.5" width="1439.6" height="24.65"/>
            </clipPath>
<clipPath id="terminal-2016407568-line-11">
    <rect x="0" y="269.9" width="1439.6" height="24.65"/>
            </clipPath>
<clipPath id="terminal-2016407568-line-12">
    <rect x="0" y="294.3" width="1439.6" height="24.65"/>
            </clipPath>
<clipPath id="terminal-2016407568-line-13">
    <rect x="0" y="318.7" width="1439.6" height="24.65"/>
            </clipPath>
<clipPath id="terminal-2016407568-line-14">
    <rect x="0" y="343.1" width="1439.6" height="24.65"/>
            </clipPath>
<clipPath id="terminal-2016407568-line-15">
    <rect x="0" y="367.5" width="1439.6" height="24.65"/>
            </clipPath>
<clipPath id="terminal-2016407568-line-16">
    <rect x="0" y="391.9" width="1439.6" height="24.65"/>
            </clipPath>
<clipPath id="terminal-2016407568-line-17">
    <rect x="0" y="416.3" width="1439.6" height="24.65"/>
            </clipPath>
<clipPath id="terminal-2016407568-line-18">
    <rect x="0" y="440.7" width="1439.6" height="24.65"/>
            </clipPath>
<clipPath id="terminal-2016407568-line-19">
    <rect x="0" y="465.1" width="1439.6" height="24.65"/>
            </clipPath>
<clipPath id="terminal-2016407568-line-20">
    <rect x="0" y="489.5" width="1439.6" height="24.65"/>
            </clipPath>
<clipPath id="terminal-2016407568-line-21">
    <rect x="0" y="513.9" width="1439.6" height="24.65"/>
            </clipPath>
<clipPath id="terminal-2016407568-line-22">
    <rect x="0" y="538.3" width="1439.6" height="24.65"/>
            </clipPath>
<clipPath id="terminal-2016407568-line-23">
    <rect x="0" y="562.7" width="1439.6" height="24.65"/>
            </clipPath>
<clipPath id="terminal-2016407568-line-24">
    <rect x="0" y="587.1" width="1439.6" height="24.65"/>
            </clipPath>
<clipPath id="terminal-2016407568-line-25">
    <rect x="0" y="611.5" width="1439.6" height="24.65"/>
            </clipPath>
<clipPath id="terminal-2016407568-line-26">
    <rect x="0" y="635.9" width="1439.6" height="24.65"/>
            </clipPath>
<clipPath id="terminal-2016407568-line-27">
    <rect x="0" y="660.3" width="1439.6" height="24.65"/>
            </clipPath>
<clipPath id="terminal-2016407568-line-28">
    <rect x="0" y="684.7" width="1439.6" height="24.65"/>
            </clipPath>
    </defs>

    <rect fill="#292929" stroke="rgba(255,255,255,0.35)" stroke-width="1" x="1" y="1" width="1456" height="780" rx="8"/><text class="terminal-2016407568-title" fill="#c5c8c6" text-anchor="middle" x="728" y="27">taskboard&#160;·&#160;help&#160;·&#160;inc003&#160;·&#160;118x30</text>
            <g transform="translate(26,22)">
            <circle cx="0" cy="0" r="7" fill="#ff5f57"/>
            <circle cx="22" cy="0" r="7" fill="#febc2e"/>
            <circle cx="44" cy="0" r="7" fill="#28c840"/>
            </g>
        
    <g transform="translate(9, 41)" clip-path="url(#terminal-2016407568-clip-terminal)">
    <rect fill="#0d1117" x="0" y="1.5" width="1439.6" height="24.65" shape-rendering="crispEdges"/><rect fill="#0d1117" x="0" y="25.9" width="48.8" height="24.65" shape-rendering="crispEdges"/><rect fill="#0d1219" x="48.8" y="25.9" width="12.2" height="24.65" shape-rendering="crispEdges"/><rect fill="#0d1219" x="61" y="25.9" width="1317.6" height="24.65" shape-rendering="crispEdges"/><rect fill="#0d1219" x="1378.6" y="25.9" width="12.2" height="24.65" shape-rendering="crispEdges"/><rect fill="#0d1117" x="1390.8" y="25.9" width="48.8" height="24.65" shape-rendering="crispEdges"/><rect fill="#0d1117" x="0" y="50.3" width="48.8" height="24.65" shape-rendering="crispEdges"/><rect fill="#0d1219" x="48.8" y="50.3" width="12.2" height="24.65" shape-rendering="crispEdges"/><rect fill="#0d1219" x="61" y="50.3" width="1317.6" height="24.65" shape-rendering="crispEdges"/><rect fill="#0d1219" x="1378.6" y="50.3" width="12.2" height="24.65" shape-rendering="crispEdges"/><rect fill="#0d1117" x="1390.8" y="50.3" width="48.8" height="24.65" shape-rendering="crispEdges"/><rect fill="#0d1117" x="0" y="74.7" width="48.8" height="24.65" shape-rendering="crispEdges"/><rect fill="#0d1219" x="48.8" y="74.7" width="12.2" height="24.65" shape-rendering="crispEdges"/><rect fill="#0d1219" x="61" y="74.7" width="24.4" height="24.65" shape-rendering="crispEdges"/><rect fill="#0d1219" x="85.4" y="74.7" width="146.4" height="24.65" shape-rendering="crispEdges"/><rect fill="#0d1219" x="231.8" y="74.7" width="1122.4" height="24.65" shape-rendering="crispEdges"/><rect fill="#0d1219" x="1354.2" y="74.7" width="24.4" height="24.65" shape-rendering="crispEdges"/><rect fill="#0d1219" x="1378.6" y="74.7" width="12.2" height="24.65" shape-rendering="crispEdges"/><rect fill="#0d1117" x="1390.8" y="74.7" width="48.8" height="24.65" shape-rendering="crispEdges"/><rect fill="#0d1117" x="0" y="99.1" width="48.8" height="24.65" shape-rendering="crispEdges"/><rect fill="#0d1219" x="48.8" y="99.1" width="12.2" height="24.65" shape-rendering="crispEdges"/><rect fill="#0d1219" x="61" y="99.1" width="24.4" height="24.65" shape-rendering="crispEdges"/><rect fill="#0d1219" x="85.4" y="99.1" width="1268.8" height="24.65" shape-rendering="crispEdges"/><rect fill="#0d1219" x="1354.2" y="99.1" width="24.4" height="24.65" shape-rendering="crispEdges"/><rect fill="#0d1219" x="1378.6" y="99.1" width="12.2" height="24.65" shape-rendering="crispEdges"/><rect fill="#0d1117" x="1390.8" y="99.1" width="48.8" height="24.65" shape-rendering="crispEdges"/><rect fill="#0d1117" x="0" y="123.5" width="48.8" height="24.65" shape-rendering="crispEdges"/><rect fill="#0d1219" x="48.8" y="123.5" width="12.2" height="24.65" shape-rendering="crispEdges"/><rect fill="#0d1219" x="61" y="123.5" width="24.4" height="24.65" shape-rendering="crispEdges"/><rect fill="#0d1219" x="85.4" y="123.5" width="61" height="24.65" shape-rendering="crispEdges"/><rect fill="#0d1219" x="146.4" y="123.5" width="524.6" height="24.65" shape-rendering="crispEdges"/><rect fill="#0d1219" x="671" y="123.5" width="73.2" height="24.65" shape-rendering="crispEdges"/><rect fill="#0d1219" x="744.2" y="123.5" width="610" height="24.65" shape-rendering="crispEdges"/><rect fill="#0d1219" x="1354.2" y="123.5" width="24.4" height="24.65" shape-rendering="crispEdges"/><rect fill="#0d1219" x="1378.6" y="123.5" width="12.2" height="24.65" shape-rendering="crispEdges"/><rect fill="#0d1117" x="1390.8" y="123.5" width="48.8" height="24.65" shape-rendering="crispEdges"/><rect fill="#0d1117" x="0" y="147.9" width="48.8" height="24.65" shape-rendering="crispEdges"/><rect fill="#0d1219" x="48.8" y="147.9" width="12.2" height="24.65" shape-rendering="crispEdges"/><rect fill="#0d1219" x="61" y="147.9" width="24.4" height="24.65" shape-rendering="crispEdges"/><rect fill="#0d1219" x="85.4" y="147.9" width="585.6" height="24.65" shape-rendering="crispEdges"/><rect fill="#0d1219" x="671" y="147.9" width="683.2" height="24.65" shape-rendering="crispEdges"/><rect fill="#0d1219" x="1354.2" y="147.9" width="24.4" height="24.65" shape-rendering="crispEdges"/><rect fill="#0d1219" x="1378.6" y="147.9" width="12.2" height="24.65" shape-rendering="crispEdges"/><rect fill="#0d1117" x="1390.8" y="147.9" width="48.8" height="24.65" shape-rendering="crispEdges"/><rect fill="#0d1117" x="0" y="172.3" width="48.8" height="24.65" shape-rendering="crispEdges"/><rect fill="#0d1219" x="48.8" y="172.3" width="12.2" height="24.65" shape-rendering="crispEdges"/><rect fill="#0d1219" x="61" y="172.3" width="24.4" height="24.65" shape-rendering="crispEdges"/><rect fill="#0d1219" x="85.4" y="172.3" width="170.8" height="24.65" shape-rendering="crispEdges"/><rect fill="#0d1219" x="256.2" y="172.3" width="414.8" height="24.65" shape-rendering="crispEdges"/><rect fill="#0d1219" x="671" y="172.3" width="24.4" height="24.65" shape-rendering="crispEdges"/><rect fill="#0d1219" x="695.4" y="172.3" width="24.4" height="24.65" shape-rendering="crispEdges"/><rect fill="#0d1219" x="719.8" y="172.3" width="610" height="24.65" shape-rendering="crispEdges"/><rect fill="#0d1219" x="1329.8" y="172.3" width="24.4" height="24.65" shape-rendering="crispEdges"/><rect fill="#0d1219" x="1354.2" y="172.3" width="24.4" height="24.65" shape-rendering="crispEdges"/><rect fill="#0d1219" x="1378.6" y="172.3" width="12.2" height="24.65" shape-rendering="crispEdges"/><rect fill="#0d1117" x="1390.8" y="172.3" width="48.8" height="24.65" shape-rendering="crispEdges"/><rect fill="#0d1117" x="0" y="196.7" width="48.8" height="24.65" shape-rendering="crispEdges"/><rect fill="#0d1219" x="48.8" y="196.7" width="12.2" height="24.65" shape-rendering="crispEdges"/><rect fill="#0d1219" x="61" y="196.7" width="24.4" height="24.65" shape-rendering="crispEdges"/><rect fill="#0d1219" x="85.4" y="196.7" width="549" height="24.65" shape-rendering="crispEdges"/><rect fill="#0d1219" x="634.4" y="196.7" width="36.6" height="24.65" shape-rendering="crispEdges"/><rect fill="#0d1219" x="671" y="196.7" width="12.2" height="24.65" shape-rendering="crispEdges"/><rect fill="#0d1219" x="683.2" y="196.7" width="378.2" height="24.65" shape-rendering="crispEdges"/><rect fill="#0d1219" x="1061.4" y="196.7" width="292.8" height="24.65" shape-rendering="crispEdges"/><rect fill="#0d1219" x="1354.2" y="196.7" width="24.4" height="24.65" shape-rendering="crispEdges"/><rect fill="#0d1219" x="1378.6" y="196.7" width="12.2" height="24.65" shape-rendering="crispEdges"/><rect fill="#0d1117" x="1390.8" y="196.7" width="48.8" height="24.65" shape-rendering="crispEdges"/><rect fill="#0d1117" x="0" y="221.1" width="48.8" height="24.65" shape-rendering="crispEdges"/><rect fill="#0d1219" x="48.8" y="221.1" width="12.2" height="24.65" shape-rendering="crispEdges"/><rect fill="#0d1219" x="61" y="221.1" width="24.4" height="24.65" shape-rendering="crispEdges"/><rect fill="#0d1219" x="85.4" y="221.1" width="524.6" height="24.65" shape-rendering="crispEdges"/><rect fill="#0d1219" x="610" y="221.1" width="61" height="24.65" shape-rendering="crispEdges"/><rect fill="#0d1219" x="671" y="221.1" width="12.2" height="24.65" shape-rendering="crispEdges"/><rect fill="#0d1219" x="683.2" y="221.1" width="414.8" height="24.65" shape-rendering="crispEdges"/><rect fill="#0d1219" x="1098" y="221.1" width="256.2" height="24.65" shape-rendering="crispEdges"/><rect fill="#0d1219" x="1354.2" y="221.1" width="24.4" height="24.65" shape-rendering="crispEdges"/><rect fill="#0d1219" x="1378.6" y="221.1" width="12.2" height="24.65" shape-rendering="crispEdges"/><rect fill="#0d1117" x="1390.8" y="221.1" width="48.8" height="24.65" shape-rendering="crispEdges"/><rect fill="#0d1117" x="0" y="245.5" width="48.8" height="24.65" shape-rendering="crispEdges"/><rect fill="#0d1219" x="48.8" y="245.5" width="12.2" height="24.65" shape-rendering="crispEdges"/><rect fill="#0d1219" x="61" y="245.5" width="24.4" height="24.65" shape-rendering="crispEdges"/><rect fill="#0d1219" x="85.4" y="245.5" width="207.4" height="24.65" shape-rendering="crispEdges"/><rect fill="#0d1219" x="292.8" y="245.5" width="378.2" height="24.65" shape-rendering="crispEdges"/><rect fill="#0d1219" x="671" y="245.5" width="12.2" height="24.65" shape-rendering="crispEdges"/><rect fill="#0d1219" x="683.2" y="245.5" width="85.4" height="24.65" shape-rendering="crispEdges"/><rect fill="#0d1219" x="768.6" y="245.5" width="585.6" height="24.65" shape-rendering="crispEdges"/><rect fill="#0d1219" x="1354.2" y="245.5" width="24.4" height="24.65" shape-rendering="crispEdges"/><rect fill="#0d1219" x="1378.6" y="245.5" width="12.2" height="24.65" shape-rendering="crispEdges"/><rect fill="#0d1117" x="1390.8" y="245.5" width="48.8" height="24.65" shape-rendering="crispEdges"/><rect fill="#0d1117" x="0" y="269.9" width="48.8" height="24.65" shape-rendering="crispEdges"/><rect fill="#0d1219" x="48.8" y="269.9" width="12.2" height="24.65" shape-rendering="crispEdges"/><rect fill="#0d1219" x="61" y="269.9" width="24.4" height="24.65" shape-rendering="crispEdges"/><rect fill="#0d1219" x="85.4" y="269.9" width="524.6" height="24.65" shape-rendering="crispEdges"/><rect fill="#0d1219" x="610" y="269.9" width="61" height="24.65" shape-rendering="crispEdges"/><rect fill="#0d1219" x="671" y="269.9" width="36.6" height="24.65" shape-rendering="crispEdges"/><rect fill="#0d1219" x="707.6" y="269.9" width="451.4" height="24.65" shape-rendering="crispEdges"/><rect fill="#0d1219" x="1159" y="269.9" width="195.2" height="24.65" shape-rendering="crispEdges"/><rect fill="#0d1219" x="1354.2" y="269.9" width="24.4" height="24.65" shape-rendering="crispEdges"/><rect fill="#0d1219" x="1378.6" y="269.9" width="12.2" height="24.65" shape-rendering="crispEdges"/><rect fill="#0d1117" x="1390.8" y="269.9" width="48.8" height="24.65" shape-rendering="crispEdges"/><rect fill="#0d1117" x="0" y="294.3" width="48.8" height="24.65" shape-rendering="crispEdges"/><rect fill="#0d1219" x="48.8" y="294.3" width="12.2" height="24.65" shape-rendering="crispEdges"/><rect fill="#0d1219" x="61" y="294.3" width="24.4" height="24.65" shape-rendering="crispEdges"/><rect fill="#0d1219" x="85.4" y="294.3" width="451.4" height="24.65" shape-rendering="crispEdges"/><rect fill="#0d1219" x="536.8" y="294.3" width="134.2" height="24.65" shape-rendering="crispEdges"/><rect fill="#0d1219" x="671" y="294.3" width="12.2" height="24.65" shape-rendering="crispEdges"/><rect fill="#0d1219" x="683.2" y="294.3" width="390.4" height="24.65" shape-rendering="crispEdges"/><rect fill="#0d1219" x="1073.6" y="294.3" width="280.6" height="24.65" shape-rendering="crispEdges"/><rect fill="#0d1219" x="1354.2" y="294.3" width="24.4" height="24.65" shape-rendering="crispEdges"/><rect fill="#0d1219" x="1378.6" y="294.3" width="12.2" height="24.65" shape-rendering="crispEdges"/><rect fill="#0d1117" x="1390.8" y="294.3" width="48.8" height="24.65" shape-rendering="crispEdges"/><rect fill="#0d1117" x="0" y="318.7" width="48.8" height="24.65" shape-rendering="crispEdges"/><rect fill="#0d1219" x="48.8" y="318.7" width="12.2" height="24.65" shape-rendering="crispEdges"/><rect fill="#0d1219" x="61" y="318.7" width="24.4" height="24.65" shape-rendering="crispEdges"/><rect fill="#0d1219" x="85.4" y="318.7" width="109.8" height="24.65" shape-rendering="crispEdges"/><rect fill="#0d1219" x="195.2" y="318.7" width="475.8" height="24.65" shape-rendering="crispEdges"/><rect fill="#0d1219" x="671" y="318.7" width="36.6" height="24.65" shape-rendering="crispEdges"/><rect fill="#0d1219" x="707.6" y="318.7" width="536.8" height="24.65" shape-rendering="crispEdges"/><rect fill="#0d1219" x="1244.4" y="318.7" width="109.8" height="24.65" shape-rendering="crispEdges"/><rect fill="#0d1219" x="1354.2" y="318.7" width="24.4" height="24.65" shape-rendering="crispEdges"/><rect fill="#0d1219" x="1378.6" y="318.7" width="12.2" height="24.65" shape-rendering="crispEdges"/><rect fill="#0d1117" x="1390.8" y="318.7" width="48.8" height="24.65" shape-rendering="crispEdges"/><rect fill="#0d1117" x="0" y="343.1" width="48.8" height="24.65" shape-rendering="crispEdges"/><rect fill="#0d1219" x="48.8" y="343.1" width="12.2" height="24.65" shape-rendering="crispEdges"/><rect fill="#0d1219" x="61" y="343.1" width="24.4" height="24.65" shape-rendering="crispEdges"/><rect fill="#0d1219" x="85.4" y="343.1" width="378.2" height="24.65" shape-rendering="crispEdges"/><rect fill="#0d1219" x="463.6" y="343.1" width="207.4" height="24.65" shape-rendering="crispEdges"/><rect fill="#0d1219" x="671" y="343.1" width="24.4" height="24.65" shape-rendering="crispEdges"/><rect fill="#0d1219" x="695.4" y="343.1" width="12.2" height="24.65" shape-rendering="crispEdges"/><rect fill="#0d1219" x="707.6" y="343.1" width="451.4" height="24.65" shape-rendering="crispEdges"/><rect fill="#0d1219" x="1159" y="343.1" width="195.2" height="24.65" shape-rendering="crispEdges"/><rect fill="#0d1219" x="1354.2" y="343.1" width="24.4" height="24.65" shape-rendering="crispEdges"/><rect fill="#0d1219" x="1378.6" y="343.1" width="12.2" height="24.65" shape-rendering="crispEdges"/><rect fill="#0d1117" x="1390.8" y="343.1" width="48.8" height="24.65" shape-rendering="crispEdges"/><rect fill="#0d1117" x="0" y="367.5" width="48.8" height="24.65" shape-rendering="crispEdges"/><rect fill="#0d1219" x="48.8" y="367.5" width="12.2" height="24.65" shape-rendering="crispEdges"/><rect fill="#0d1219" x="61" y="367.5" width="24.4" height="24.65" shape-rendering="crispEdges"/><rect fill="#0d1219" x="85.4" y="367.5" width="573.4" height="24.65" shape-rendering="crispEdges"/><rect fill="#0d1219" x="658.8" y="367.5" width="12.2" height="24.65" shape-rendering="crispEdges"/><rect fill="#0d1219" x="671" y="367.5" width="12.2" height="24.65" shape-rendering="crispEdges"/><rect fill="#0d1219" x="683.2" y="367.5" width="536.8" height="24.65" shape-rendering="crispEdges"/><rect fill="#0d1219" x="1220" y="367.5" width="134.2" height="24.65" shape-rendering="crispEdges"/><rect fill="#0d1219" x="1354.2" y="367.5" width="24.4" height="24.65" shape-rendering="crispEdges"/><rect fill="#0d1219" x="1378.6" y="367.5" width="12.2" height="24.65" shape-rendering="crispEdges"/><rect fill="#0d1117" x="1390.8" y="367.5" width="48.8" height="24.65" shape-rendering="crispEdges"/><rect fill="#0d1117" x="0" y="391.9" width="48.8" height="24.65" shape-rendering="crispEdges"/><rect fill="#0d1219" x="48.8" y="391.9" width="12.2" height="24.65" shape-rendering="crispEdges"/><rect fill="#0d1219" x="61" y="391.9" width="24.4" height="24.65" shape-rendering="crispEdges"/><rect fill="#0d1219" x="85.4" y="391.9" width="512.4" height="24.65" shape-rendering="crispEdges"/><rect fill="#0d1219" x="597.8" y="391.9" width="73.2" height="24.65" shape-rendering="crispEdges"/><rect fill="#0d1219" x="671" y="391.9" width="24.4" height="24.65" shape-rendering="crispEdges"/><rect fill="#0d1219" x="695.4" y="391.9" width="402.6" height="24.65" shape-rendering="crispEdges"/><rect fill="#0d1219" x="1098" y="391.9" width="256.2" height="24.65" shape-rendering="crispEdges"/><rect fill="#0d1219" x="1354.2" y="391.9" width="24.4" height="24.65" shape-rendering="crispEdges"/><rect fill="#0d1219" x="1378.6" y="391.9" width="12.2" height="24.65" shape-rendering="crispEdges"/><rect fill="#0d1117" x="1390.8" y="391.9" width="48.8" height="24.65" shape-rendering="crispEdges"/><rect fill="#0d1117" x="0" y="416.3" width="48.8" height="24.65" shape-rendering="crispEdges"/><rect fill="#0d1219" x="48.8" y="416.3" width="12.2" height="24.65" shape-rendering="crispEdges"/><rect fill="#0d1219" x="61" y="416.3" width="24.4" height="24.65" shape-rendering="crispEdges"/><rect fill="#0d1219" x="85.4" y="416.3" width="585.6" height="24.65" shape-rendering="crispEdges"/><rect fill="#0d1219" x="671" y="416.3" width="12.2" height="24.65" shape-rendering="crispEdges"/><rect fill="#0d1219" x="683.2" y="416.3" width="524.6" height="24.65" shape-rendering="crispEdges"/><rect fill="#0d1219" x="1207.8" y="416.3" width="146.4" height="24.65" shape-rendering="crispEdges"/><rect fill="#0d1219" x="1354.2" y="416.3" width="24.4" height="24.65" shape-rendering="crispEdges"/><rect fill="#0d1219" x="1378.6" y="416.3" width="12.2" height="24.65" shape-rendering="crispEdges"/><rect fill="#0d1117" x="1390.8" y="416.3" width="48.8" height="24.65" shape-rendering="crispEdges"/><rect fill="#0d1117" x="0" y="440.7" width="48.8" height="24.65" shape-rendering="crispEdges"/><rect fill="#0d1219" x="48.8" y="440.7" width="12.2" height="24.65" shape-rendering="crispEdges"/><rect fill="#0d1219" x="61" y="440.7" width="24.4" height="24.65" shape-rendering="crispEdges"/><rect fill="#0d1219" x="85.4" y="440.7" width="585.6" height="24.65" shape-rendering="crispEdges"/><rect fill="#0d1219" x="671" y="440.7" width="24.4" height="24.65" shape-rendering="crispEdges"/><rect fill="#0d1219" x="695.4" y="440.7" width="439.2" height="24.65" shape-rendering="crispEdges"/><rect fill="#0d1219" x="1134.6" y="440.7" width="219.6" height="24.65" shape-rendering="crispEdges"/><rect fill="#0d1219" x="1354.2" y="440.7" width="24.4" height="24.65" shape-rendering="crispEdges"/><rect fill="#0d1219" x="1378.6" y="440.7" width="12.2" height="24.65" shape-rendering="crispEdges"/><rect fill="#0d1117" x="1390.8" y="440.7" width="48.8" height="24.65" shape-rendering="crispEdges"/><rect fill="#0d1117" x="0" y="465.1" width="48.8" height="24.65" shape-rendering="crispEdges"/><rect fill="#0d1219" x="48.8" y="465.1" width="12.2" height="24.65" shape-rendering="crispEdges"/><rect fill="#0d1219" x="61" y="465.1" width="24.4" height="24.65" shape-rendering="crispEdges"/><rect fill="#0d1219" x="85.4" y="465.1" width="585.6" height="24.65" shape-rendering="crispEdges"/><rect fill="#0d1219" x="671" y="465.1" width="85.4" height="24.65" shape-rendering="crispEdges"/><rect fill="#0d1219" x="756.4" y="465.1" width="597.8" height="24.65" shape-rendering="crispEdges"/><rect fill="#0d1219" x="1354.2" y="465.1" width="24.4" height="24.65" shape-rendering="crispEdges"/><rect fill="#0d1219" x="1378.6" y="465.1" width="12.2" height="24.65" shape-rendering="crispEdges"/><rect fill="#0d1117" x="1390.8" y="465.1" width="48.8" height="24.65" shape-rendering="crispEdges"/><rect fill="#0d1117" x="0" y="489.5" width="48.8" height="24.65" shape-rendering="crispEdges"/><rect fill="#0d1219" x="48.8" y="489.5" width="12.2" height="24.65" shape-rendering="crispEdges"/><rect fill="#0d1219" x="61" y="489.5" width="24.4" height="24.65" shape-rendering="crispEdges"/><rect fill="#0d1219" x="85.4" y="489.5" width="585.6" height="24.65" shape-rendering="crispEdges"/><rect fill="#0d1219" x="671" y="489.5" width="683.2" height="24.65" shape-rendering="crispEdges"/><rect fill="#0d1219" x="1354.2" y="489.5" width="24.4" height="24.65" shape-rendering="crispEdges"/><rect fill="#0d1219" x="1378.6" y="489.5" width="12.2" height="24.65" shape-rendering="crispEdges"/><rect fill="#0d1117" x="1390.8" y="489.5" width="48.8" height="24.65" shape-rendering="crispEdges"/><rect fill="#0d1117" x="0" y="513.9" width="48.8" height="24.65" shape-rendering="crispEdges"/><rect fill="#0d1219" x="48.8" y="513.9" width="12.2" height="24.65" shape-rendering="crispEdges"/><rect fill="#0d1219" x="61" y="513.9" width="24.4" height="24.65" shape-rendering="crispEdges"/><rect fill="#0d1219" x="85.4" y="513.9" width="585.6" height="24.65" shape-rendering="crispEdges"/><rect fill="#0d1219" x="671" y="513.9" width="402.6" height="24.65" shape-rendering="crispEdges"/><rect fill="#0d1219" x="1073.6" y="513.9" width="280.6" height="24.65" shape-rendering="crispEdges"/><rect fill="#0d1219" x="1354.2" y="513.9" width="24.4" height="24.65" shape-rendering="crispEdges"/><rect fill="#0d1219" x="1378.6" y="513.9" width="12.2" height="24.65" shape-rendering="crispEdges"/><rect fill="#0d1117" x="1390.8" y="513.9" width="48.8" height="24.65" shape-rendering="crispEdges"/><rect fill="#0d1117" x="0" y="538.3" width="48.8" height="24.65" shape-rendering="crispEdges"/><rect fill="#0d1219" x="48.8" y="538.3" width="12.2" height="24.65" shape-rendering="crispEdges"/><rect fill="#0d1219" x="61" y="538.3" width="24.4" height="24.65" shape-rendering="crispEdges"/><rect fill="#0d1219" x="85.4" y="538.3" width="585.6" height="24.65" shape-rendering="crispEdges"/><rect fill="#0d1219" x="671" y="538.3" width="671" height="24.65" shape-rendering="crispEdges"/><rect fill="#0d1219" x="1342" y="538.3" width="12.2" height="24.65" shape-rendering="crispEdges"/><rect fill="#0d1219" x="1354.2" y="538.3" width="24.4" height="24.65" shape-rendering="crispEdges"/><rect fill="#0d1219" x="1378.6" y="538.3" width="12.2" height="24.65" shape-rendering="crispEdges"/><rect fill="#0d1117" x="1390.8" y="538.3" width="48.8" height="24.65" shape-rendering="crispEdges"/><rect fill="#0d1117" x="0" y="562.7" width="48.8" height="24.65" shape-rendering="crispEdges"/><rect fill="#0d1219" x="48.8" y="562.7" width="12.2" height="24.65" shape-rendering="crispEdges"/><rect fill="#0d1219" x="61" y="562.7" width="24.4" height="24.65" shape-rendering="crispEdges"/><rect fill="#0d1219" x="85.4" y="562.7" width="585.6" height="24.65" shape-rendering="crispEdges"/><rect fill="#0d1219" x="671" y="562.7" width="48.8" height="24.65" shape-rendering="crispEdges"/><rect fill="#0d1219" x="719.8" y="562.7" width="634.4" height="24.65" shape-rendering="crispEdges"/><rect fill="#0d1219" x="1354.2" y="562.7" width="24.4" height="24.65" shape-rendering="crispEdges"/><rect fill="#0d1219" x="1378.6" y="562.7" width="12.2" height="24.65" shape-rendering="crispEdges"/><rect fill="#0d1117" x="1390.8" y="562.7" width="48.8" height="24.65" shape-rendering="crispEdges"/><rect fill="#0d1117" x="0" y="587.1" width="48.8" height="24.65" shape-rendering="crispEdges"/><rect fill="#0d1219" x="48.8" y="587.1" width="12.2" height="24.65" shape-rendering="crispEdges"/><rect fill="#0d1219" x="61" y="587.1" width="24.4" height="24.65" shape-rendering="crispEdges"/><rect fill="#0d1219" x="85.4" y="587.1" width="451.4" height="24.65" shape-rendering="crispEdges"/><rect fill="#0d1219" x="536.8" y="587.1" width="817.4" height="24.65" shape-rendering="crispEdges"/><rect fill="#0d1219" x="1354.2" y="587.1" width="24.4" height="24.65" shape-rendering="crispEdges"/><rect fill="#0d1219" x="1378.6" y="587.1" width="12.2" height="24.65" shape-rendering="crispEdges"/><rect fill="#0d1117" x="1390.8" y="587.1" width="48.8" height="24.65" shape-rendering="crispEdges"/><rect fill="#0d1117" x="0" y="611.5" width="48.8" height="24.65" shape-rendering="crispEdges"/><rect fill="#0d1219" x="48.8" y="611.5" width="12.2" height="24.65" shape-rendering="crispEdges"/><rect fill="#0d1219" x="61" y="611.5" width="24.4" height="24.65" shape-rendering="crispEdges"/><rect fill="#0d1219" x="85.4" y="611.5" width="1268.8" height="24.65" shape-rendering="crispEdges"/><rect fill="#0d1219" x="1354.2" y="611.5" width="24.4" height="24.65" shape-rendering="crispEdges"/><rect fill="#0d1219" x="1378.6" y="611.5" width="12.2" height="24.65" shape-rendering="crispEdges"/><rect fill="#0d1117" x="1390.8" y="611.5" width="48.8" height="24.65" shape-rendering="crispEdges"/><rect fill="#0d1117" x="0" y="635.9" width="48.8" height="24.65" shape-rendering="crispEdges"/><rect fill="#0d1219" x="48.8" y="635.9" width="12.2" height="24.65" shape-rendering="crispEdges"/><rect fill="#0d1219" x="61" y="635.9" width="1317.6" height="24.65" shape-rendering="crispEdges"/><rect fill="#0d1219" x="1378.6" y="635.9" width="12.2" height="24.65" shape-rendering="crispEdges"/><rect fill="#0d1117" x="1390.8" y="635.9" width="48.8" height="24.65" shape-rendering="crispEdges"/><rect fill="#0d1117" x="0" y="660.3" width="48.8" height="24.65" shape-rendering="crispEdges"/><rect fill="#0d1219" x="48.8" y="660.3" width="12.2" height="24.65" shape-rendering="crispEdges"/><rect fill="#0d1219" x="61" y="660.3" width="1317.6" height="24.65" shape-rendering="crispEdges"/><rect fill="#0d1219" x="1378.6" y="660.3" width="12.2" height="24.65" shape-rendering="crispEdges"/><rect fill="#0d1117" x="1390.8" y="660.3" width="48.8" height="24.65" shape-rendering="crispEdges"/><rect fill="#0d1117" x="0" y="684.7" width="1439.6" height="24.65" shape-rendering="crispEdges"/><rect fill="#0d1117" x="0" y="709.1" width="1439.6" height="24.65" shape-rendering="crispEdges"/>
    <g class="terminal-2016407568-matrix">
    <text class="terminal-2016407568-r1" x="1439.6" y="20" textLength="12.2" clip-path="url(#terminal-2016407568-line-0)">
</text><text class="terminal-2016407568-r2" x="48.8" y="44.4" textLength="12.2" clip-path="url(#terminal-2016407568-line-1)">╭</text><text class="terminal-2016407568-r2" x="61" y="44.4" textLength="1317.6" clip-path="url(#terminal-2016407568-line-1)">────────────────────────────────────────────────────────────────────────────────────────────────────────────</text><text class="terminal-2016407568-r2" x="1378.6" y="44.4" textLength="12.2" clip-path="url(#terminal-2016407568-line-1)">╮</text><text class="terminal-2016407568-r1" x="1439.6" y="44.4" textLength="12.2" clip-path="url(#terminal-2016407568-line-1)">
</text><text class="terminal-2016407568-r2" x="48.8" y="68.8" textLength="12.2" clip-path="url(#terminal-2016407568-line-2)">│</text><text class="terminal-2016407568-r2" x="1378.6" y="68.8" textLength="12.2" clip-path="url(#terminal-2016407568-line-2)">│</text><text class="terminal-2016407568-r1" x="1439.6" y="68.8" textLength="12.2" clip-path="url(#terminal-2016407568-line-2)">
</text><text class="terminal-2016407568-r2" x="48.8" y="93.2" textLength="12.2" clip-path="url(#terminal-2016407568-line-3)">│</text><text class="terminal-2016407568-r3" x="85.4" y="93.2" textLength="146.4" clip-path="url(#terminal-2016407568-line-3)">Help&#160;·&#160;gantt</text><text class="terminal-2016407568-r2" x="1378.6" y="93.2" textLength="12.2" clip-path="url(#terminal-2016407568-line-3)">│</text><text class="terminal-2016407568-r1" x="1439.6" y="93.2" textLength="12.2" clip-path="url(#terminal-2016407568-line-3)">
</text><text class="terminal-2016407568-r2" x="48.8" y="117.6" textLength="12.2" clip-path="url(#terminal-2016407568-line-4)">│</text><text class="terminal-2016407568-r2" x="1378.6" y="117.6" textLength="12.2" clip-path="url(#terminal-2016407568-line-4)">│</text><text class="terminal-2016407568-r1" x="1439.6" y="117.6" textLength="12.2" clip-path="url(#terminal-2016407568-line-4)">
</text><text class="terminal-2016407568-r2" x="48.8" y="142" textLength="12.2" clip-path="url(#terminal-2016407568-line-5)">│</text><text class="terminal-2016407568-r3" x="85.4" y="142" textLength="61" clip-path="url(#terminal-2016407568-line-5)">Usage</text><text class="terminal-2016407568-r3" x="671" y="142" textLength="73.2" clip-path="url(#terminal-2016407568-line-5)">Legend</text><text class="terminal-2016407568-r2" x="1378.6" y="142" textLength="12.2" clip-path="url(#terminal-2016407568-line-5)">│</text><text class="terminal-2016407568-r1" x="1439.6" y="142" textLength="12.2" clip-path="url(#terminal-2016407568-line-5)">
</text><text class="terminal-2016407568-r2" x="48.8" y="166.4" textLength="12.2" clip-path="url(#terminal-2016407568-line-6)">│</text><text class="terminal-2016407568-r2" x="1378.6" y="166.4" textLength="12.2" clip-path="url(#terminal-2016407568-line-6)">│</text><text class="terminal-2016407568-r1" x="1439.6" y="166.4" textLength="12.2" clip-path="url(#terminal-2016407568-line-6)">
</text><text class="terminal-2016407568-r2" x="48.8" y="190.8" textLength="12.2" clip-path="url(#terminal-2016407568-line-7)">│</text><text class="terminal-2016407568-r4" x="85.4" y="190.8" textLength="170.8" clip-path="url(#terminal-2016407568-line-7)">what&#160;it&#160;is&#160;for</text><text class="terminal-2016407568-r5" x="671" y="190.8" textLength="24.4" clip-path="url(#terminal-2016407568-line-7)">──</text><text class="terminal-2016407568-r6" x="695.4" y="190.8" textLength="24.4" clip-path="url(#terminal-2016407568-line-7)">──</text><text class="terminal-2016407568-r7" x="719.8" y="190.8" textLength="610" clip-path="url(#terminal-2016407568-line-7)">&#160;&#160;the&#160;span:&#160;ash&#160;is&#160;elapsed,&#160;colour&#160;is&#160;what&#160;remains</text><text class="terminal-2016407568-r2" x="1378.6" y="190.8" textLength="12.2" clip-path="url(#terminal-2016407568-line-7)">│</text><text class="terminal-2016407568-r1" x="1439.6" y="190.8" textLength="12.2" clip-path="url(#terminal-2016407568-line-7)">
</text><text class="terminal-2016407568-r2" x="48.8" y="215.2" textLength="12.2" clip-path="url(#terminal-2016407568-line-8)">│</text><text class="terminal-2016407568-r7" x="85.4" y="215.2" textLength="549" clip-path="url(#terminal-2016407568-line-8)">&#160;&#160;•&#160;the&#160;whole&#160;board,&#160;fitted&#160;to&#160;the&#160;open&#160;work.</text><text class="terminal-2016407568-r6" x="671" y="215.2" textLength="12.2" clip-path="url(#terminal-2016407568-line-8)">●</text><text class="terminal-2016407568-r7" x="683.2" y="215.2" textLength="378.2" clip-path="url(#terminal-2016407568-line-8)">&#160;&#160;how&#160;far&#160;the&#160;work&#160;actually&#160;got</text><text class="terminal-2016407568-r2" x="1378.6" y="215.2" textLength="12.2" clip-path="url(#terminal-2016407568-line-8)">│</text><text class="terminal-2016407568-r1" x="1439.6" y="215.2" textLength="12.2" clip-path="url(#terminal-2016407568-line-8)">
</text><text class="terminal-2016407568-r2" x="48.8" y="239.6" textLength="12.2" clip-path="url(#terminal-2016407568-line-9)">│</text><text class="terminal-2016407568-r7" x="85.4" y="239.6" textLength="524.6" clip-path="url(#terminal-2016407568-line-9)">&#160;&#160;•&#160;▾&#160;open&#160;·&#160;▸&#160;folded&#160;when&#160;it&#160;does&#160;not&#160;fit.</text><text class="terminal-2016407568-r6" x="671" y="239.6" textLength="12.2" clip-path="url(#terminal-2016407568-line-9)">◆</text><text class="terminal-2016407568-r7" x="683.2" y="239.6" textLength="414.8" clip-path="url(#terminal-2016407568-line-9)">&#160;&#160;the&#160;project&#x27;s&#160;committed&#160;due&#160;date</text><text class="terminal-2016407568-r2" x="1378.6" y="239.6" textLength="12.2" clip-path="url(#terminal-2016407568-line-9)">│</text><text class="terminal-2016407568-r1" x="1439.6" y="239.6" textLength="12.2" clip-path="url(#terminal-2016407568-line-9)">
</text><text class="terminal-2016407568-r2" x="48.8" y="264" textLength="12.2" clip-path="url(#terminal-2016407568-line-10)">│</text><text class="terminal-2016407568-r4" x="85.4" y="264" textLength="207.4" clip-path="url(#terminal-2016407568-line-10)">first&#160;thing&#160;to&#160;do</text><text class="terminal-2016407568-r8" x="671" y="264" textLength="12.2" clip-path="url(#terminal-2016407568-line-10)">╎</text><text class="terminal-2016407568-r7" x="683.2" y="264" textLength="85.4" clip-path="url(#terminal-2016407568-line-10)">&#160;&#160;today</text><text class="terminal-2016407568-r2" x="1378.6" y="264" textLength="12.2" clip-path="url(#terminal-2016407568-line-10)">│</text><text class="terminal-2016407568-r1" x="1439.6" y="264" textLength="12.2" clip-path="url(#terminal-2016407568-line-10)">
</text><text class="terminal-2016407568-r2" x="48.8" y="288.4" textLength="12.2" clip-path="url(#terminal-2016407568-line-11)">│</text><text class="terminal-2016407568-r7" x="85.4" y="288.4" textLength="524.6" clip-path="url(#terminal-2016407568-line-11)">&#160;&#160;•&#160;read&#160;the&#160;ruler&#160;on&#160;top:&#160;months&#160;and&#160;days;</text><text class="terminal-2016407568-r9" x="671" y="288.4" textLength="36.6" clip-path="url(#terminal-2016407568-line-11)">·┆·</text><text class="terminal-2016407568-r7" x="707.6" y="288.4" textLength="451.4" clip-path="url(#terminal-2016407568-line-11)">&#160;&#160;calendar&#160;guide:&#160;Mondays,&#160;or&#160;the&#160;1st</text><text class="terminal-2016407568-r2" x="1378.6" y="288.4" textLength="12.2" clip-path="url(#terminal-2016407568-line-11)">│</text><text class="terminal-2016407568-r1" x="1439.6" y="288.4" textLength="12.2" clip-path="url(#terminal-2016407568-line-11)">
</text><text class="terminal-2016407568-r2" x="48.8" y="312.8" textLength="12.2" clip-path="url(#terminal-2016407568-line-12)">│</text><text class="terminal-2016407568-r7" x="85.4" y="312.8" textLength="451.4" clip-path="url(#terminal-2016407568-line-12)">&#160;&#160;•&#160;⟦━⟧&#160;marks&#160;the&#160;task&#x27;s&#160;exact&#160;dates.</text><text class="terminal-2016407568-r2" x="671" y="312.8" textLength="12.2" clip-path="url(#terminal-2016407568-line-12)">┃</text><text class="terminal-2016407568-r7" x="683.2" y="312.8" textLength="390.4" clip-path="url(#terminal-2016407568-line-12)">&#160;&#160;the&#160;ruler:&#160;a&#160;month&#160;starts&#160;here</text><text class="terminal-2016407568-r2" x="1378.6" y="312.8" textLength="12.2" clip-path="url(#terminal-2016407568-line-12)">│</text><text class="terminal-2016407568-r1" x="1439.6" y="312.8" textLength="12.2" clip-path="url(#terminal-2016407568-line-12)">
</text><text class="terminal-2016407568-r2" x="48.8" y="337.2" textLength="12.2" clip-path="url(#terminal-2016407568-line-13)">│</text><text class="terminal-2016407568-r4" x="85.4" y="337.2" textLength="109.8" clip-path="url(#terminal-2016407568-line-13)">the&#160;marks</text><text class="terminal-2016407568-r3" x="671" y="337.2" textLength="36.6" clip-path="url(#terminal-2016407568-line-13)">⟦━⟧</text><text class="terminal-2016407568-r7" x="707.6" y="337.2" textLength="536.8" clip-path="url(#terminal-2016407568-line-13)">&#160;&#160;the&#160;ruler:&#160;the&#160;selected&#160;task&#x27;s&#160;exact&#160;dates</text><text class="terminal-2016407568-r2" x="1378.6" y="337.2" textLength="12.2" clip-path="url(#terminal-2016407568-line-13)">│</text><text class="terminal-2016407568-r1" x="1439.6" y="337.2" textLength="12.2" clip-path="url(#terminal-2016407568-line-13)">
</text><text class="terminal-2016407568-r2" x="48.8" y="361.6" textLength="12.2" clip-path="url(#terminal-2016407568-line-14)">│</text><text class="terminal-2016407568-r7" x="85.4" y="361.6" textLength="378.2" clip-path="url(#terminal-2016407568-line-14)">&#160;&#160;•&#160;─&#160;span&#160;·&#160;●&#160;progress&#160;·&#160;◆&#160;due</text><text class="terminal-2016407568-r6" x="671" y="361.6" textLength="24.4" clip-path="url(#terminal-2016407568-line-14)">╌╌</text><text class="terminal-2016407568-r6" x="695.4" y="361.6" textLength="12.2" clip-path="url(#terminal-2016407568-line-14)">◔</text><text class="terminal-2016407568-r7" x="707.6" y="361.6" textLength="451.4" clip-path="url(#terminal-2016407568-line-14)">&#160;&#160;a&#160;task&#x27;s&#160;reach,&#160;tipped&#160;by&#160;its&#160;phase</text><text class="terminal-2016407568-r2" x="1378.6" y="361.6" textLength="12.2" clip-path="url(#terminal-2016407568-line-14)">│</text><text class="terminal-2016407568-r1" x="1439.6" y="361.6" textLength="12.2" clip-path="url(#terminal-2016407568-line-14)">
</text><text class="terminal-2016407568-r2" x="48.8" y="386" textLength="12.2" clip-path="url(#terminal-2016407568-line-15)">│</text><text class="terminal-2016407568-r7" x="85.4" y="386" textLength="573.4" clip-path="url(#terminal-2016407568-line-15)">&#160;&#160;•&#160;╌&#160;task,&#160;tip&#160;○◔◑◕&#160;=&#160;phase&#160;·&#160;━&#160;critical&#160;chain</text><text class="terminal-2016407568-r10" x="671" y="386" textLength="12.2" clip-path="url(#terminal-2016407568-line-15)">↳</text><text class="terminal-2016407568-r7" x="683.2" y="386" textLength="536.8" clip-path="url(#terminal-2016407568-line-15)">&#160;&#160;waits&#160;on&#160;open&#160;work&#160;(red:&#160;starts&#160;too&#160;early)</text><text class="terminal-2016407568-r2" x="1378.6" y="386" textLength="12.2" clip-path="url(#terminal-2016407568-line-15)">│</text><text class="terminal-2016407568-r1" x="1439.6" y="386" textLength="12.2" clip-path="url(#terminal-2016407568-line-15)">
</text><text class="terminal-2016407568-r2" x="48.8" y="410.4" textLength="12.2" clip-path="url(#terminal-2016407568-line-16)">│</text><text class="terminal-2016407568-r7" x="85.4" y="410.4" textLength="512.4" clip-path="url(#terminal-2016407568-line-16)">&#160;&#160;•&#160;↳&#160;waits&#160;on&#160;another&#160;·&#160;✓n&#160;done&#160;·&#160;▲n&#160;late</text><text class="terminal-2016407568-r10" x="671" y="410.4" textLength="24.4" clip-path="url(#terminal-2016407568-line-16)">◂▸</text><text class="terminal-2016407568-r7" x="695.4" y="410.4" textLength="402.6" clip-path="url(#terminal-2016407568-line-16)">&#160;&#160;the&#160;work&#160;runs&#160;beyond&#160;the&#160;window</text><text class="terminal-2016407568-r2" x="1378.6" y="410.4" textLength="12.2" clip-path="url(#terminal-2016407568-line-16)">│</text><text class="terminal-2016407568-r1" x="1439.6" y="410.4" textLength="12.2" clip-path="url(#terminal-2016407568-line-16)">
</text><text class="terminal-2016407568-r2" x="48.8" y="434.8" textLength="12.2" clip-path="url(#terminal-2016407568-line-17)">│</text><text class="terminal-2016407568-r6" x="671" y="434.8" textLength="12.2" clip-path="url(#terminal-2016407568-line-17)">▸</text><text class="terminal-2016407568-r7" x="683.2" y="434.8" textLength="524.6" clip-path="url(#terminal-2016407568-line-17)">&#160;&#160;a&#160;folded&#160;project:&#160;its&#160;open&#160;count,&#160;no&#160;rows</text><text class="terminal-2016407568-r2" x="1378.6" y="434.8" textLength="12.2" clip-path="url(#terminal-2016407568-line-17)">│</text><text class="terminal-2016407568-r1" x="1439.6" y="434.8" textLength="12.2" clip-path="url(#terminal-2016407568-line-17)">
</text><text class="terminal-2016407568-r2" x="48.8" y="459.2" textLength="12.2" clip-path="url(#terminal-2016407568-line-18)">│</text><text class="terminal-2016407568-r11" x="671" y="459.2" textLength="24.4" clip-path="url(#terminal-2016407568-line-18)">✓2</text><text class="terminal-2016407568-r7" x="695.4" y="459.2" textLength="439.2" clip-path="url(#terminal-2016407568-line-18)">&#160;&#160;finished&#160;work,&#160;folded&#160;into&#160;a&#160;count</text><text class="terminal-2016407568-r2" x="1378.6" y="459.2" textLength="12.2" clip-path="url(#terminal-2016407568-line-18)">│</text><text class="terminal-2016407568-r1" x="1439.6" y="459.2" textLength="12.2" clip-path="url(#terminal-2016407568-line-18)">
</text><text class="terminal-2016407568-r2" x="48.8" y="483.6" textLength="12.2" clip-path="url(#terminal-2016407568-line-19)">│</text><text class="terminal-2016407568-r3" x="671" y="483.6" textLength="85.4" clip-path="url(#terminal-2016407568-line-19)">Example</text><text class="terminal-2016407568-r2" x="1378.6" y="483.6" textLength="12.2" clip-path="url(#terminal-2016407568-line-19)">│</text><text class="terminal-2016407568-r1" x="1439.6" y="483.6" textLength="12.2" clip-path="url(#terminal-2016407568-line-19)">
</text><text class="terminal-2016407568-r2" x="48.8" y="508" textLength="12.2" clip-path="url(#terminal-2016407568-line-20)">│</text><text class="terminal-2016407568-r2" x="1378.6" y="508" textLength="12.2" clip-path="url(#terminal-2016407568-line-20)">│</text><text class="terminal-2016407568-r1" x="1439.6" y="508" textLength="12.2" clip-path="url(#terminal-2016407568-line-20)">
</text><text class="terminal-2016407568-r2" x="48.8" y="532.4" textLength="12.2" clip-path="url(#terminal-2016407568-line-21)">│</text><text class="terminal-2016407568-r7" x="671" y="532.4" textLength="402.6" clip-path="url(#terminal-2016407568-line-21)">▸&#160;Ops&#160;&#160;&#160;&#160;&#160;4&#160;open&#160;&#160;◂───╎──●────◆··</text><text class="terminal-2016407568-r2" x="1378.6" y="532.4" textLength="12.2" clip-path="url(#terminal-2016407568-line-21)">│</text><text class="terminal-2016407568-r1" x="1439.6" y="532.4" textLength="12.2" clip-path="url(#terminal-2016407568-line-21)">
</text><text class="terminal-2016407568-r2" x="48.8" y="556.8" textLength="12.2" clip-path="url(#terminal-2016407568-line-22)">│</text><text class="terminal-2016407568-r12" x="671" y="556.8" textLength="671" clip-path="url(#terminal-2016407568-line-22)">folded:&#160;its&#160;row&#160;says&#160;how&#160;much&#160;is&#160;still&#160;open;&#160;▾&#160;opens&#160;it</text><text class="terminal-2016407568-r2" x="1378.6" y="556.8" textLength="12.2" clip-path="url(#terminal-2016407568-line-22)">│</text><text class="terminal-2016407568-r1" x="1439.6" y="556.8" textLength="12.2" clip-path="url(#terminal-2016407568-line-22)">
</text><text class="terminal-2016407568-r2" x="48.8" y="581.2" textLength="12.2" clip-path="url(#terminal-2016407568-line-23)">│</text><text class="terminal-2016407568-r3" x="671" y="581.2" textLength="48.8" clip-path="url(#terminal-2016407568-line-23)">Keys</text><text class="terminal-2016407568-r2" x="1378.6" y="581.2" textLength="12.2" clip-path="url(#terminal-2016407568-line-23)">│</text><text class="terminal-2016407568-r1" x="1439.6" y="581.2" textLength="12.2" clip-path="url(#terminal-2016407568-line-23)">
</text><text class="terminal-2016407568-r2" x="48.8" y="605.6" textLength="12.2" clip-path="url(#terminal-2016407568-line-24)">│</text><text class="terminal-2016407568-r13" x="85.4" y="605.6" textLength="451.4" clip-path="url(#terminal-2016407568-line-24)">m&#160;full&#160;map&#160;·&#160;?&#160;palette&#160;·&#160;esc/q&#160;closes</text><text class="terminal-2016407568-r2" x="1378.6" y="605.6" textLength="12.2" clip-path="url(#terminal-2016407568-line-24)">│</text><text class="terminal-2016407568-r1" x="1439.6" y="605.6" textLength="12.2" clip-path="url(#terminal-2016407568-line-24)">
</text><text class="terminal-2016407568-r2" x="48.8" y="630" textLength="12.2" clip-path="url(#terminal-2016407568-line-25)">│</text><text class="terminal-2016407568-r2" x="1378.6" y="630" textLength="12.2" clip-path="url(#terminal-2016407568-line-25)">│</text><text class="terminal-2016407568-r1" x="1439.6" y="630" textLength="12.2" clip-path="url(#terminal-2016407568-line-25)">
</text><text class="terminal-2016407568-r2" x="48.8" y="654.4" textLength="12.2" clip-path="url(#terminal-2016407568-line-26)">│</text><text class="terminal-2016407568-r2" x="1378.6" y="654.4" textLength="12.2" clip-path="url(#terminal-2016407568-line-26)">│</text><text class="terminal-2016407568-r1" x="1439.6" y="654.4" textLength="12.2" clip-path="url(#terminal-2016407568-line-26)">
</text><text class="terminal-2016407568-r2" x="48.8" y="678.8" textLength="12.2" clip-path="url(#terminal-2016407568-line-27)">╰</text><text class="terminal-2016407568-r2" x="61" y="678.8" textLength="1317.6" clip-path="url(#terminal-2016407568-line-27)">────────────────────────────────────────────────────────────────────────────────────────────────────────────</text><text class="terminal-2016407568-r2" x="1378.6" y="678.8" textLength="12.2" clip-path="url(#terminal-2016407568-line-27)">╯</text><text class="terminal-2016407568-r1" x="1439.6" y="678.8" textLength="12.2" clip-path="url(#terminal-2016407568-line-27)">
</text><text class="terminal-2016407568-r1" x="1439.6" y="703.2" textLength="12.2" clip-path="url(#terminal-2016407568-line-28)">
</text>
    </g>
    </g>
</svg>
